<svg id="vk-icon" xmlns="http://www.w3.org/2000/svg" width="27" height="16" viewBox="0 0 27 16">
  <g id="vk-icon-2" data-name="vk-icon">
    <path id="Shape" d="M16.138,11.511c.956-.309,2.18,2.04,3.483,2.939a2.448,2.448,0,0,0,1.727.534l3.473-.05s1.815-.112.957-1.554a11.7,11.7,0,0,0-2.585-3.022c-2.177-2.043-1.882-1.712.739-5.244,1.6-2.153,2.236-3.468,2.036-4.028C25.776.547,24.6.687,24.6.687L20.69.714a.8.8,0,0,0-.851.515,23.279,23.279,0,0,1-1.445,3.079C16.653,7.3,15.958,7.456,15.67,7.269c-.661-.433-.494-1.737-.494-2.664,0-2.9.432-4.1-.846-4.417A6.607,6.607,0,0,0,12.5.006,8.292,8.292,0,0,0,9.258.335c-.445.223-.786.712-.579.74a1.754,1.754,0,0,1,1.155.586,3.862,3.862,0,0,1,.389,1.789s.229,3.411-.54,3.834c-.528.29-1.25-.3-2.8-3.016A25.376,25.376,0,0,1,5.488,1.346,1.181,1.181,0,0,0,5.162.9a1.61,1.61,0,0,0-.6-.244L.848.685S.29.7.085.947C-.1,1.165.07,1.615.07,1.615S2.979,8.5,6.273,11.962a8.861,8.861,0,0,0,6.452,2.971H14.28a1.325,1.325,0,0,0,.709-.312,1.138,1.138,0,0,0,.214-.691S15.172,11.821,16.138,11.511Z" transform="translate(0 0.999)" fill="#fff"/>
  </g>
</svg>
